<?xml version="1.0" encoding="utf-8"?>
<!-- Generator: Adobe Illustrator 21.1.0, SVG Export Plug-In . SVG Version: 6.00 Build 0)  -->
<svg version="1.1" id="Layer_1" xmlns="http://www.w3.org/2000/svg" xmlns:xlink="http://www.w3.org/1999/xlink" x="0px" y="0px"
	 viewBox="0 0 256 256" style="enable-background:new 0 0 256 256;" xml:space="preserve">
<style type="text/css">
	.st0{fill:#FFFFFF;}
</style>
<path class="st0" d="M184.7,79.9l-0.1-0.3L129.3,4.2L74.1,79.7L44.8,199.5l83.2,52.4l82.4-51.9l0.8-0.5L184.7,79.9z M111.2,201.5
	l11.8,37.9l-60.3-37.9H111.2z M109.1,193.6H55.2l35.6-61.3L109.1,193.6z M87,124.9l-28.1,48.3L78,94.5L87,124.9z M133.3,62.7V21.1
	l43.4,60.7l-10.8,36L133.3,62.7z M148.3,193.6l19.6-61.2l33.1,61.2H148.3z M129.3,69.6l34.1,56.9l-23.2,67.1h-23.2l-21.9-67.1
	L129.3,69.6z M92.8,117.8L82,81.8l43.4-60.7v41.7L92.8,117.8z M146.1,201.5h48.4l-61.4,37.8L146.1,201.5z M171.6,124.9l8.9-29
	l17.9,78.2L171.6,124.9z M138.1,201.5l-10,31.1l-8.9-31.1H138.1z"/>
</svg>
