<?xml version="1.0" encoding="utf-8"?>
<!-- Generator: Adobe Illustrator 21.1.0, SVG Export Plug-In . SVG Version: 6.00 Build 0)  -->
<svg version="1.1" id="Layer_1" xmlns="http://www.w3.org/2000/svg" xmlns:xlink="http://www.w3.org/1999/xlink" x="0px" y="0px"
	 viewBox="0 0 256 256" style="enable-background:new 0 0 256 256;" xml:space="preserve">
<style type="text/css">
	.st0{fill:#FFFFFF;}
</style>
<path class="st0" d="M233.2,128c0,17.9-0.1,35.7,0.1,53.6c0,3.7-1.1,5.9-4.4,7.7c-32.4,18-64.7,36-96.9,54.2c-2.8,1.6-5.1,1.7-8,0.1
	c-32-18-64-36-96-53.7c-3.7-2-5.3-4.3-5.3-8.7c0.2-35.6,0.2-71.1,0-106.7c0-4,1.4-6.1,4.8-8c32.2-17.9,64.4-35.9,96.5-54
	c2.9-1.6,5.2-1.6,8.1,0.1C164.4,30.8,196.8,49,229.3,67c3,1.7,4,3.6,3.9,6.9C233.1,91.9,233.2,110,233.2,128z M123.6,132.7
	c-3.3,2.1-5.9,3.7-9,5.7c4.6,2.6,8.9,4.7,12.7,7.3c4,2.8,7.5,2.9,11.5,0c1.4-1,4-2.1,5.2-1.5c7.9,4,15.5,8.4,23.7,13
	c-1.3,1-1.9,1.6-2.6,1.9c-10.6,5.9-21.3,11.8-31.9,17.8c-2.4,1.4-4.2,1.4-6.6,0c-23.5-13.2-47.1-26.2-70.7-39.3
	c-1.9-1-3.9-1.8-6.8-3.1c0,6.2,0.3,11.4-0.1,16.6c-0.3,3.8,0.9,5.8,4.3,7.7c24.4,13.3,48.7,26.7,72.9,40.2c2.8,1.6,4.9,1.5,7.6,0
	c18.1-10.2,36.3-20.3,54.4-30.5c6.3-3.5,12.6-7.1,19.7-11.2c-15.4-8.7-29.8-16.8-44.8-25.3c3.1-2,5.3-3.5,8.2-5.5
	c-5.2-2.9-9.8-5.1-13.9-7.9c-3.3-2.3-6-2-9.2,0.1c-1.5,1-3.8,2.4-5.1,1.9c-3.6-1.4-6.9-3.7-11-6c3.8-2.4,6.7-4.3,10.3-6.6
	c-4.9-2.7-9.2-4.7-13-7.4c-3.9-2.8-7.2-2.6-11.1,0.1c-1.9,1.3-4.9,3-6.4,2.3c-6.5-3-12.7-6.8-19.7-10.6c1.8-1.3,2.8-2,3.9-2.7
	c9.8-5.5,19.6-10.9,29.3-16.5c3.2-1.9,5.7-1.9,9,0c14.8,8.4,29.7,16.7,44.7,24.9c1.6,0.9,4,2.2,5.3,1.7c6.2-3,12.1-6.5,18.8-10.2
	c-1.6-1.2-2.4-2-3.4-2.5c-22.3-12.3-44.6-24.7-67-36.8c-1.6-0.8-4.5-0.6-6.1,0.3c-23.6,13-47.1,26.1-70.7,39.3
	c-1.1,0.6-2,1.5-3.6,2.7c13.6,7.6,26.6,15,40,22.5c-2.5,1.8-4.3,3.1-6.7,4.8c5.2,2.9,9.8,5.3,14.1,8c2.8,1.8,5.2,2,8.1,0.2
	c1.4-0.9,3.5-1.9,4.8-1.4C116.5,128.3,119.7,130.4,123.6,132.7z"/>
</svg>
